<svg width="150" height="106" viewBox="0 0 150 106" fill="none" xmlns="http://www.w3.org/2000/svg">
<path d="M67.5178 2.12769H91.348V105.321H67.5178V2.12769Z" fill="#212E53"/>
<path d="M29.6777 23.8302L29.6777 0L129.041 -1.1849e-06L129.041 23.8302L29.6777 23.8302Z" fill="#212E53"/>
<path d="M95.5309 105.321L95.5309 28.0852L112.553 28.0852L112.553 105.321L95.5309 105.321Z" fill="#4A919E"/>
<path d="M150 45.1069L95.5309 45.1069L95.5309 28.0854L150 28.0854L150 45.1069Z" fill="#4A919E"/>
<path d="M136.669 70.0015L95.6041 70.0015L95.6041 53.4054L136.669 53.4054L136.669 70.0015Z" fill="#4A919E"/>
<path d="M13.8731 33.5455C28.3272 23.7705 48.0771 27.6307 57.8975 42.1516C60.459 45.9391 63.2961 49.9122 63.2961 54.4691C63.3423 74.1177 63.5089 96.9166 63.0086 103.819C62.9501 104.329 62.672 104.788 62.2473 105.076C61.8224 105.363 61.2929 105.45 60.7977 105.315C54.1829 103.496 31.3298 96.7839 15.0286 86.809C11.2445 84.4926 8.02787 81.3978 5.46634 77.6101C-4.35252 63.0884 -0.581558 43.321 13.8731 33.5455ZM40.9336 73.5583C48.4418 68.4806 50.4005 58.2123 45.2998 50.6701C40.1987 43.1272 29.9393 41.1218 22.4311 46.1996C14.9227 51.2773 12.9639 61.5456 18.0651 69.0887C23.1652 76.6314 33.4245 78.6367 40.9336 73.5583Z" fill="#A8AEC1"/>
</svg>
